<svg width="55" height="18" viewBox="0 0 55 18" fill="none" xmlns="http://www.w3.org/2000/svg">
<path d="M5.22 15.3C3.94 15.3 2.91333 15.08 2.14 14.64C1.38 14.1867 1 13.56 1 12.76C1 12.3733 1.11333 12.0667 1.34 11.84C1.58 11.6 1.86667 11.48 2.2 11.48C2.53333 11.48 2.82 11.58 3.06 11.78C3.3 11.98 3.45333 12.34 3.52 12.86L3.58 13.18C3.67333 13.7933 3.85333 14.2333 4.12 14.5C4.4 14.7667 4.77333 14.9 5.24 14.9V9.96L4.64 9.74C3.50667 9.35333 2.62667 8.84667 2 8.22C1.38667 7.58 1.08 6.78 1.08 5.82C1.08 4.75333 1.44667 3.86667 2.18 3.16C2.92667 2.45333 3.95333 2.07333 5.26 2.02V0.22H5.74V2.02C6.91333 2.04667 7.82667 2.31333 8.48 2.82C9.14667 3.31333 9.48 3.9 9.48 4.58C9.48 4.98 9.37333 5.28667 9.16 5.5C8.96 5.71333 8.68 5.82 8.32 5.82C8.01333 5.82 7.73333 5.71333 7.48 5.5C7.24 5.28667 7.06667 4.88667 6.96 4.3L6.88 3.84C6.8 3.42667 6.68 3.12 6.52 2.92C6.36 2.70667 6.1 2.58 5.74 2.54V7.24L6.1 7.36C7.5 7.81333 8.48 8.38 9.04 9.06C9.61333 9.74 9.9 10.5333 9.9 11.44C9.9 12.1467 9.72667 12.78 9.38 13.34C9.04667 13.8867 8.56667 14.3333 7.94 14.68C7.31333 15.0267 6.57333 15.2267 5.72 15.28V17.3H5.24V15.3H5.22ZM3.2 4.62C3.2 5.23333 3.36667 5.74 3.7 6.14C4.04667 6.54 4.56667 6.86 5.26 7.1V2.52C4.94 2.54667 4.62 2.64 4.3 2.8C3.98 2.96 3.71333 3.19333 3.5 3.5C3.3 3.79333 3.2 4.16667 3.2 4.62ZM7.7 12.46C7.7 11.86 7.55333 11.3933 7.26 11.06C6.96667 10.7267 6.45333 10.4133 5.72 10.12V14.88C6.33333 14.7867 6.81333 14.5267 7.16 14.1C7.52 13.6733 7.7 13.1267 7.7 12.46ZM11.2045 15V14.8L11.9845 14.56C12.4912 14.3867 12.7445 14.0467 12.7445 13.54V3.86L11.1245 4.08V3.82C11.9112 3.66 12.6645 3.43333 13.3845 3.14C14.1179 2.84667 14.8045 2.50667 15.4445 2.12L15.7045 2.3L15.6245 5.16V13.54C15.6245 14.06 15.8779 14.3933 16.3845 14.54L17.2045 14.8V15H11.2045ZM18.1967 12.22C18.1967 11.54 18.4701 10.94 19.0167 10.42C19.5634 9.9 20.2367 9.48 21.0367 9.16C19.3434 8.28 18.4967 7.08 18.4967 5.56C18.4967 4.82667 18.6834 4.2 19.0567 3.68C19.4301 3.14667 19.9367 2.74 20.5767 2.46C21.2301 2.16667 21.9567 2.02 22.7567 2.02C23.5701 2.02 24.2501 2.15333 24.7967 2.42C25.3434 2.67333 25.7501 3.02 26.0167 3.46C26.2967 3.88667 26.4367 4.36 26.4367 4.88C26.4367 5.28 26.3301 5.66667 26.1167 6.04C25.9034 6.41333 25.6167 6.75333 25.2567 7.06C24.9101 7.36667 24.5301 7.62 24.1167 7.82C25.1167 8.31333 25.8634 8.87333 26.3567 9.5C26.8634 10.1133 27.1167 10.8533 27.1167 11.72C27.1167 12.8 26.7034 13.6667 25.8767 14.32C25.0501 14.9733 23.9434 15.3 22.5567 15.3C21.1434 15.3 20.0634 15.0267 19.3167 14.48C18.5701 13.92 18.1967 13.1667 18.1967 12.22ZM20.8367 4.42C20.8367 4.82 20.9101 5.19333 21.0567 5.54C21.2034 5.87333 21.4834 6.21333 21.8967 6.56C22.3234 6.89333 22.9367 7.25333 23.7367 7.64C24.1367 7.17333 24.3901 6.72667 24.4967 6.3C24.6034 5.87333 24.6567 5.46 24.6567 5.06C24.6567 4.11333 24.4767 3.44 24.1167 3.04C23.7567 2.62667 23.2834 2.42 22.6967 2.42C22.1767 2.42 21.7367 2.6 21.3767 2.96C21.0167 3.30667 20.8367 3.79333 20.8367 4.42ZM20.2967 12.02C20.2967 12.8733 20.5101 13.5667 20.9367 14.1C21.3634 14.6333 21.9367 14.9 22.6567 14.9C23.3234 14.9 23.8301 14.6867 24.1767 14.26C24.5234 13.82 24.6967 13.2533 24.6967 12.56C24.6967 12.1333 24.6034 11.7533 24.4167 11.42C24.2301 11.0733 23.9034 10.74 23.4367 10.42C22.9834 10.1 22.3501 9.76 21.5367 9.4C21.4701 9.37333 21.4034 9.34 21.3367 9.3C21.0434 9.58 20.8234 9.84667 20.6767 10.1C20.5301 10.34 20.4301 10.6133 20.3767 10.92C20.3234 11.2133 20.2967 11.58 20.2967 12.02ZM30.6758 15.3C30.1958 15.3 29.7891 15.1333 29.4558 14.8C29.1224 14.4667 28.9558 14.0667 28.9558 13.6C28.9558 13.1333 29.1224 12.7267 29.4558 12.38C29.7891 12.0333 30.1958 11.86 30.6758 11.86C31.1558 11.86 31.5624 12.0333 31.8958 12.38C32.2291 12.7267 32.3958 13.1333 32.3958 13.6C32.3958 14.0667 32.2291 14.4667 31.8958 14.8C31.5624 15.1333 31.1558 15.3 30.6758 15.3ZM43.6719 7.38C43.6719 8.72667 43.3585 9.95333 42.7319 11.06C42.1052 12.1533 41.1852 13.0733 39.9719 13.82C38.7719 14.5667 37.2985 15.0933 35.5519 15.4L35.4719 15.04C36.6585 14.7867 37.6119 14.42 38.3319 13.94C39.0519 13.46 39.5919 12.8533 39.9519 12.12C40.3252 11.3867 40.5652 10.5067 40.6719 9.48C40.3919 9.66667 40.0452 9.82 39.6319 9.94C39.2185 10.0467 38.7519 10.1 38.2319 10.1C37.4852 10.1 36.8119 9.95333 36.2119 9.66C35.6252 9.35333 35.1585 8.91333 34.8119 8.34C34.4652 7.76667 34.2919 7.07333 34.2919 6.26C34.2919 5.39333 34.5052 4.64667 34.9319 4.02C35.3585 3.38 35.9185 2.88667 36.6119 2.54C37.3185 2.19333 38.0919 2.02 38.9319 2.02C40.4519 2.02 41.6185 2.5 42.4319 3.46C43.2585 4.40667 43.6719 5.71333 43.6719 7.38ZM37.1119 6C37.1119 7.21333 37.2785 8.09333 37.6119 8.64C37.9452 9.17333 38.4919 9.44 39.2519 9.44C39.8119 9.44 40.2985 9.32 40.7119 9.08C40.7385 8.78667 40.7585 8.49333 40.7719 8.2C40.7852 7.89333 40.7919 7.57333 40.7919 7.24C40.7919 6.01333 40.7319 5.05333 40.6119 4.36C40.4919 3.65333 40.2985 3.15333 40.0319 2.86C39.7652 2.56667 39.4052 2.42 38.9519 2.42C38.3385 2.42 37.8785 2.7 37.5719 3.26C37.2652 3.82 37.1119 4.73333 37.1119 6ZM49.3364 15.3C48.5364 15.3 47.7831 15.0733 47.0764 14.62C46.3831 14.1667 45.8231 13.4533 45.3964 12.48C44.9697 11.5067 44.7564 10.24 44.7564 8.68C44.7564 7.10667 44.9697 5.83333 45.3964 4.86C45.8231 3.87333 46.3831 3.15333 47.0764 2.7C47.7831 2.24667 48.5364 2.02 49.3364 2.02C50.1364 2.02 50.8831 2.24667 51.5764 2.7C52.2831 3.15333 52.8497 3.87333 53.2764 4.86C53.7164 5.83333 53.9364 7.10667 53.9364 8.68C53.9364 10.24 53.7164 11.5067 53.2764 12.48C52.8497 13.4533 52.2831 14.1667 51.5764 14.62C50.8831 15.0733 50.1364 15.3 49.3364 15.3ZM49.3364 14.9C49.6697 14.9 49.9497 14.8133 50.1764 14.64C50.4164 14.4667 50.6097 14.1533 50.7564 13.7C50.9031 13.2467 51.0097 12.62 51.0764 11.82C51.1431 11.0067 51.1764 9.96 51.1764 8.68C51.1764 7.4 51.1431 6.35333 51.0764 5.54C51.0097 4.71333 50.9031 4.07333 50.7564 3.62C50.6097 3.16667 50.4164 2.85333 50.1764 2.68C49.9497 2.50667 49.6697 2.42 49.3364 2.42C49.0031 2.42 48.7164 2.50667 48.4764 2.68C48.2497 2.85333 48.0631 3.16667 47.9164 3.62C47.7697 4.06 47.6631 4.69333 47.5964 5.52C47.5297 6.33333 47.4964 7.38667 47.4964 8.68C47.4964 9.96 47.5297 11.0067 47.5964 11.82C47.6631 12.6333 47.7697 13.2667 47.9164 13.72C48.0631 14.16 48.2497 14.4667 48.4764 14.64C48.7164 14.8133 49.0031 14.9 49.3364 14.9Z" fill="#F8593B"/>
<path d="M0 9.22H54.3564V10.22H0V9.22Z" fill="#F8593B"/>
</svg>
