<svg width="59" height="18" viewBox="0 0 59 18" fill="none" xmlns="http://www.w3.org/2000/svg">
<path d="M5.22 15.3C3.94 15.3 2.91333 15.08 2.14 14.64C1.38 14.1867 1 13.56 1 12.76C1 12.3733 1.11333 12.0667 1.34 11.84C1.58 11.6 1.86667 11.48 2.2 11.48C2.53333 11.48 2.82 11.58 3.06 11.78C3.3 11.98 3.45333 12.34 3.52 12.86L3.58 13.18C3.67333 13.7933 3.85333 14.2333 4.12 14.5C4.4 14.7667 4.77333 14.9 5.24 14.9V9.96L4.64 9.74C3.50667 9.35333 2.62667 8.84667 2 8.22C1.38667 7.58 1.08 6.78 1.08 5.82C1.08 4.75333 1.44667 3.86667 2.18 3.16C2.92667 2.45333 3.95333 2.07333 5.26 2.02V0.22H5.74V2.02C6.91333 2.04667 7.82667 2.31333 8.48 2.82C9.14667 3.31333 9.48 3.9 9.48 4.58C9.48 4.98 9.37333 5.28667 9.16 5.5C8.96 5.71333 8.68 5.82 8.32 5.82C8.01333 5.82 7.73333 5.71333 7.48 5.5C7.24 5.28667 7.06667 4.88667 6.96 4.3L6.88 3.84C6.8 3.42667 6.68 3.12 6.52 2.92C6.36 2.70667 6.1 2.58 5.74 2.54V7.24L6.1 7.36C7.5 7.81333 8.48 8.38 9.04 9.06C9.61333 9.74 9.9 10.5333 9.9 11.44C9.9 12.1467 9.72667 12.78 9.38 13.34C9.04667 13.8867 8.56667 14.3333 7.94 14.68C7.31333 15.0267 6.57333 15.2267 5.72 15.28V17.3H5.24V15.3H5.22ZM3.2 4.62C3.2 5.23333 3.36667 5.74 3.7 6.14C4.04667 6.54 4.56667 6.86 5.26 7.1V2.52C4.94 2.54667 4.62 2.64 4.3 2.8C3.98 2.96 3.71333 3.19333 3.5 3.5C3.3 3.79333 3.2 4.16667 3.2 4.62ZM7.7 12.46C7.7 11.86 7.55333 11.3933 7.26 11.06C6.96667 10.7267 6.45333 10.4133 5.72 10.12V14.88C6.33333 14.7867 6.81333 14.5267 7.16 14.1C7.52 13.6733 7.7 13.1267 7.7 12.46ZM12.0245 5.68L12.1645 2.84C12.5645 2.61333 13.0579 2.42 13.6445 2.26C14.2445 2.1 14.9179 2.02 15.6645 2.02C16.7312 2.02 17.5912 2.17333 18.2445 2.48C18.8979 2.77333 19.3779 3.18 19.6845 3.7C19.9912 4.22 20.1445 4.80667 20.1445 5.46C20.1445 6.38 19.6979 7.28 18.8045 8.16C17.9112 9.02667 16.6912 9.98667 15.1445 11.04C14.8512 11.2533 14.5045 11.5133 14.1045 11.82C13.7045 12.1267 13.3312 12.4267 12.9845 12.72H20.4845V15H11.6845V13.32C12.1645 12.8533 12.6312 12.3933 13.0845 11.94C13.5512 11.4733 13.9912 11.0333 14.4045 10.62C15.3645 9.63333 16.0779 8.76 16.5445 8C17.0245 7.22667 17.2645 6.4 17.2645 5.52C17.2645 4.6 17.0979 3.86 16.7645 3.3C16.4312 2.72667 15.9312 2.44 15.2645 2.44C14.8512 2.44 14.4645 2.54667 14.1045 2.76C13.7579 2.96 13.4512 3.31333 13.1845 3.82L12.2245 5.68H12.0245ZM31.2891 7.38C31.2891 8.72667 30.9757 9.95333 30.3491 11.06C29.7224 12.1533 28.8024 13.0733 27.5891 13.82C26.3891 14.5667 24.9157 15.0933 23.1691 15.4L23.0891 15.04C24.2757 14.7867 25.2291 14.42 25.9491 13.94C26.6691 13.46 27.2091 12.8533 27.5691 12.12C27.9424 11.3867 28.1824 10.5067 28.2891 9.48C28.0091 9.66667 27.6624 9.82 27.2491 9.94C26.8357 10.0467 26.3691 10.1 25.8491 10.1C25.1024 10.1 24.4291 9.95333 23.8291 9.66C23.2424 9.35333 22.7757 8.91333 22.4291 8.34C22.0824 7.76667 21.9091 7.07333 21.9091 6.26C21.9091 5.39333 22.1224 4.64667 22.5491 4.02C22.9757 3.38 23.5357 2.88667 24.2291 2.54C24.9357 2.19333 25.7091 2.02 26.5491 2.02C28.0691 2.02 29.2357 2.5 30.0491 3.46C30.8757 4.40667 31.2891 5.71333 31.2891 7.38ZM24.7291 6C24.7291 7.21333 24.8957 8.09333 25.2291 8.64C25.5624 9.17333 26.1091 9.44 26.8691 9.44C27.4291 9.44 27.9157 9.32 28.3291 9.08C28.3557 8.78667 28.3757 8.49333 28.3891 8.2C28.4024 7.89333 28.4091 7.57333 28.4091 7.24C28.4091 6.01333 28.3491 5.05333 28.2291 4.36C28.1091 3.65333 27.9157 3.15333 27.6491 2.86C27.3824 2.56667 27.0224 2.42 26.5691 2.42C25.9557 2.42 25.4957 2.7 25.1891 3.26C24.8824 3.82 24.7291 4.73333 24.7291 6ZM34.9336 15.3C34.4536 15.3 34.0469 15.1333 33.7136 14.8C33.3803 14.4667 33.2136 14.0667 33.2136 13.6C33.2136 13.1333 33.3803 12.7267 33.7136 12.38C34.0469 12.0333 34.4536 11.86 34.9336 11.86C35.4136 11.86 35.8203 12.0333 36.1536 12.38C36.4869 12.7267 36.6536 13.1333 36.6536 13.6C36.6536 14.0667 36.4869 14.4667 36.1536 14.8C35.8203 15.1333 35.4136 15.3 34.9336 15.3ZM47.9297 7.38C47.9297 8.72667 47.6164 9.95333 46.9897 11.06C46.363 12.1533 45.443 13.0733 44.2297 13.82C43.0297 14.5667 41.5564 15.0933 39.8097 15.4L39.7297 15.04C40.9164 14.7867 41.8697 14.42 42.5897 13.94C43.3097 13.46 43.8497 12.8533 44.2097 12.12C44.583 11.3867 44.823 10.5067 44.9297 9.48C44.6497 9.66667 44.303 9.82 43.8897 9.94C43.4764 10.0467 43.0097 10.1 42.4897 10.1C41.743 10.1 41.0697 9.95333 40.4697 9.66C39.883 9.35333 39.4164 8.91333 39.0697 8.34C38.723 7.76667 38.5497 7.07333 38.5497 6.26C38.5497 5.39333 38.763 4.64667 39.1897 4.02C39.6164 3.38 40.1764 2.88667 40.8697 2.54C41.5764 2.19333 42.3497 2.02 43.1897 2.02C44.7097 2.02 45.8764 2.5 46.6897 3.46C47.5164 4.40667 47.9297 5.71333 47.9297 7.38ZM41.3697 6C41.3697 7.21333 41.5364 8.09333 41.8697 8.64C42.203 9.17333 42.7497 9.44 43.5097 9.44C44.0697 9.44 44.5564 9.32 44.9697 9.08C44.9964 8.78667 45.0164 8.49333 45.0297 8.2C45.043 7.89333 45.0497 7.57333 45.0497 7.24C45.0497 6.01333 44.9897 5.05333 44.8697 4.36C44.7497 3.65333 44.5564 3.15333 44.2897 2.86C44.023 2.56667 43.663 2.42 43.2097 2.42C42.5964 2.42 42.1364 2.7 41.8297 3.26C41.523 3.82 41.3697 4.73333 41.3697 6ZM53.5942 15.3C52.7942 15.3 52.0409 15.0733 51.3342 14.62C50.6409 14.1667 50.0809 13.4533 49.6542 12.48C49.2276 11.5067 49.0142 10.24 49.0142 8.68C49.0142 7.10667 49.2276 5.83333 49.6542 4.86C50.0809 3.87333 50.6409 3.15333 51.3342 2.7C52.0409 2.24667 52.7942 2.02 53.5942 2.02C54.3942 2.02 55.1409 2.24667 55.8342 2.7C56.5409 3.15333 57.1076 3.87333 57.5342 4.86C57.9742 5.83333 58.1942 7.10667 58.1942 8.68C58.1942 10.24 57.9742 11.5067 57.5342 12.48C57.1076 13.4533 56.5409 14.1667 55.8342 14.62C55.1409 15.0733 54.3942 15.3 53.5942 15.3ZM53.5942 14.9C53.9276 14.9 54.2076 14.8133 54.4342 14.64C54.6742 14.4667 54.8676 14.1533 55.0142 13.7C55.1609 13.2467 55.2676 12.62 55.3342 11.82C55.4009 11.0067 55.4342 9.96 55.4342 8.68C55.4342 7.4 55.4009 6.35333 55.3342 5.54C55.2676 4.71333 55.1609 4.07333 55.0142 3.62C54.8676 3.16667 54.6742 2.85333 54.4342 2.68C54.2076 2.50667 53.9276 2.42 53.5942 2.42C53.2609 2.42 52.9742 2.50667 52.7342 2.68C52.5076 2.85333 52.3209 3.16667 52.1742 3.62C52.0276 4.06 51.9209 4.69333 51.8542 5.52C51.7876 6.33333 51.7542 7.38667 51.7542 8.68C51.7542 9.96 51.7876 11.0067 51.8542 11.82C51.9209 12.6333 52.0276 13.2667 52.1742 13.72C52.3209 14.16 52.5076 14.4667 52.7342 14.64C52.9742 14.8133 53.2609 14.9 53.5942 14.9Z" fill="#F8593B"/>
<path d="M0 9.22H58.6142V10.22H0V9.22Z" fill="#F8593B"/>
</svg>
