<svg width="14" height="14" viewBox="0 0 14 14" fill="none" xmlns="http://www.w3.org/2000/svg">
<rect width="14" height="14" fill="#F5F5F5"/>
<rect x="-1023" y="-523" width="1904" height="1064" fill="#EEEEEE"/>
<rect x="-1023" y="-523" width="1904" height="1064" stroke="#D8D8D8" stroke-width="16"/>
<g filter="url(#filter0_d_0_1)">
<rect x="-251" y="-255" width="360" height="528" rx="16" fill="white"/>
<circle cx="7" cy="7" r="12" fill="#2ECC71"/>
<path d="M10.5038 0C10.5038 0 9.35192 1.11753 8.10617 1.56808C-1.11899 4.90485 2.77166 11.4073 2.89858 11.4287C2.89858 11.4287 3.41589 10.5279 4.11468 10.014C8.54895 6.75421 9.45021 3.00198 9.45021 3.00198C9.45021 3.00198 8.45516 7.51711 4.51021 10.3266C3.63891 10.9467 3.04894 12.4738 2.7992 14C2.7992 14 3.41683 13.7505 3.68241 13.6829C3.78598 13.007 4.0025 12.3599 4.36858 11.7818C9.88213 12.4382 11.6879 7.99549 11.9238 6.44635C12.4806 2.7876 10.5038 0 10.5038 0Z" fill="white"/>
</g>
<defs>
<filter id="filter0_d_0_1" x="-315" y="-295" width="488" height="656" filterUnits="userSpaceOnUse" color-interpolation-filters="sRGB">
<feFlood flood-opacity="0" result="BackgroundImageFix"/>
<feColorMatrix in="SourceAlpha" type="matrix" values="0 0 0 0 0 0 0 0 0 0 0 0 0 0 0 0 0 0 127 0" result="hardAlpha"/>
<feOffset dy="24"/>
<feGaussianBlur stdDeviation="32"/>
<feColorMatrix type="matrix" values="0 0 0 0 0 0 0 0 0 0 0 0 0 0 0 0 0 0 0.04 0"/>
<feBlend mode="normal" in2="BackgroundImageFix" result="effect1_dropShadow_0_1"/>
<feBlend mode="normal" in="SourceGraphic" in2="effect1_dropShadow_0_1" result="shape"/>
</filter>
</defs>
</svg>
