<svg width="81" height="25" viewBox="0 0 81 25" fill="none" xmlns="http://www.w3.org/2000/svg">
<path d="M6.308 21.42C4.516 21.42 3.07867 21.112 1.996 20.496C0.932 19.8613 0.4 18.984 0.4 17.864C0.4 17.3227 0.558667 16.8933 0.876 16.576C1.212 16.24 1.61333 16.072 2.08 16.072C2.54667 16.072 2.948 16.212 3.284 16.492C3.62 16.772 3.83467 17.276 3.928 18.004L4.012 18.452C4.14267 19.3107 4.39467 19.9267 4.768 20.3C5.16 20.6733 5.68267 20.86 6.336 20.86V13.944L5.496 13.636C3.90933 13.0947 2.67733 12.3853 1.8 11.508C0.941333 10.612 0.512 9.492 0.512 8.148C0.512 6.65467 1.02533 5.41333 2.052 4.424C3.09733 3.43467 4.53467 2.90267 6.364 2.828V0.307999H7.036V2.828C8.67867 2.86533 9.95733 3.23867 10.872 3.948C11.8053 4.63867 12.272 5.46 12.272 6.412C12.272 6.972 12.1227 7.40133 11.824 7.7C11.544 7.99867 11.152 8.148 10.648 8.148C10.2187 8.148 9.82667 7.99867 9.472 7.7C9.136 7.40133 8.89333 6.84133 8.744 6.02L8.632 5.376C8.52 4.79733 8.352 4.368 8.128 4.088C7.904 3.78933 7.54 3.612 7.036 3.556V10.136L7.54 10.304C9.5 10.9387 10.872 11.732 11.656 12.684C12.4587 13.636 12.86 14.7467 12.86 16.016C12.86 17.0053 12.6173 17.892 12.132 18.676C11.6653 19.4413 10.9933 20.0667 10.116 20.552C9.23867 21.0373 8.20267 21.3173 7.008 21.392V24.22H6.336V21.42H6.308ZM3.48 6.468C3.48 7.32667 3.71333 8.036 4.18 8.596C4.66533 9.156 5.39333 9.604 6.364 9.94V3.528C5.916 3.56533 5.468 3.696 5.02 3.92C4.572 4.144 4.19867 4.47067 3.9 4.9C3.62 5.31067 3.48 5.83333 3.48 6.468ZM9.78 17.444C9.78 16.604 9.57467 15.9507 9.164 15.484C8.75333 15.0173 8.03467 14.5787 7.008 14.168V20.832C7.86667 20.7013 8.53867 20.3373 9.024 19.74C9.528 19.1427 9.78 18.3773 9.78 17.444ZM15.8343 7.952L16.0303 3.976C16.5903 3.65867 17.281 3.388 18.1023 3.164C18.9423 2.94 19.885 2.828 20.9303 2.828C22.4237 2.828 23.6277 3.04267 24.5423 3.472C25.457 3.88267 26.129 4.452 26.5583 5.18C26.9877 5.908 27.2023 6.72933 27.2023 7.644C27.2023 8.932 26.577 10.192 25.3263 11.424C24.0757 12.6373 22.3677 13.9813 20.2023 15.456C19.7917 15.7547 19.3063 16.1187 18.7463 16.548C18.1863 16.9773 17.6637 17.3973 17.1783 17.808H27.6783V21H15.3583V18.648C16.0303 17.9947 16.6837 17.3507 17.3183 16.716C17.9717 16.0627 18.5877 15.4467 19.1663 14.868C20.5103 13.4867 21.509 12.264 22.1623 11.2C22.8343 10.1173 23.1703 8.96 23.1703 7.728C23.1703 6.44 22.937 5.404 22.4703 4.62C22.0037 3.81733 21.3037 3.416 20.3703 3.416C19.7917 3.416 19.2503 3.56533 18.7463 3.864C18.261 4.144 17.8317 4.63867 17.4583 5.348L16.1143 7.952H15.8343ZM35.9167 21.42C34.666 21.42 33.6394 21.28 32.8367 21C32.0527 20.72 31.278 20.3933 30.5127 20.02L30.8207 16.38H31.1007L32.3327 18.648C33.154 20.1227 34.2927 20.86 35.7487 20.86C36.6074 20.86 37.298 20.5053 37.8207 19.796C38.362 19.068 38.6327 17.8547 38.6327 16.156C38.6327 14.6813 38.4087 13.6267 37.9607 12.992C37.5127 12.3387 36.7474 12.012 35.6647 12.012H33.9847V11.452H35.4687C36.458 11.452 37.1674 11.1533 37.5967 10.556C38.0447 9.95867 38.2687 8.92267 38.2687 7.448C38.2687 6.01067 38.054 4.99333 37.6247 4.396C37.1954 3.78 36.626 3.472 35.9167 3.472C35.2074 3.472 34.61 3.67733 34.1247 4.088C33.658 4.49867 33.2754 4.984 32.9767 5.544L31.7167 7.896L31.4367 7.868L31.7167 3.752C32.314 3.49067 32.9767 3.276 33.7047 3.108C34.4514 2.92133 35.282 2.828 36.1967 2.828C38.1567 2.828 39.6407 3.25733 40.6487 4.116C41.6754 4.956 42.1887 6.01067 42.1887 7.28C42.1887 8.19467 41.7967 9.072 41.0127 9.912C40.2287 10.7333 38.9967 11.3027 37.3167 11.62C39.2207 11.788 40.602 12.3013 41.4607 13.16C42.3194 14.0187 42.7487 15.0547 42.7487 16.268C42.7487 17.2387 42.4687 18.116 41.9087 18.9C41.3674 19.684 40.5834 20.3 39.5567 20.748C38.5487 21.196 37.3354 21.42 35.9167 21.42ZM47.907 21.42C47.235 21.42 46.6657 21.1867 46.199 20.72C45.7324 20.2533 45.499 19.6933 45.499 19.04C45.499 18.3867 45.7324 17.8173 46.199 17.332C46.6657 16.8467 47.235 16.604 47.907 16.604C48.579 16.604 49.1484 16.8467 49.615 17.332C50.0817 17.8173 50.315 18.3867 50.315 19.04C50.315 19.6933 50.0817 20.2533 49.615 20.72C49.1484 21.1867 48.579 21.42 47.907 21.42ZM66.1016 10.332C66.1016 12.2173 65.6629 13.9347 64.7856 15.484C63.9082 17.0147 62.6202 18.3027 60.9216 19.348C59.2416 20.3933 57.1789 21.1307 54.7336 21.56L54.6216 21.056C56.2829 20.7013 57.6176 20.188 58.6256 19.516C59.6336 18.844 60.3896 17.9947 60.8936 16.968C61.4162 15.9413 61.7522 14.7093 61.9016 13.272C61.5096 13.5333 61.0242 13.748 60.4456 13.916C59.8669 14.0653 59.2136 14.14 58.4856 14.14C57.4402 14.14 56.4976 13.9347 55.6576 13.524C54.8362 13.0947 54.1829 12.4787 53.6976 11.676C53.2122 10.8733 52.9696 9.90267 52.9696 8.764C52.9696 7.55067 53.2682 6.50533 53.8656 5.628C54.4629 4.732 55.2469 4.04133 56.2176 3.556C57.2069 3.07067 58.2896 2.828 59.4656 2.828C61.5936 2.828 63.2269 3.5 64.3656 4.844C65.5229 6.16933 66.1016 7.99867 66.1016 10.332ZM56.9176 8.4C56.9176 10.0987 57.1509 11.3307 57.6176 12.096C58.0842 12.8427 58.8496 13.216 59.9136 13.216C60.6976 13.216 61.3789 13.048 61.9576 12.712C61.9949 12.3013 62.0229 11.8907 62.0416 11.48C62.0602 11.0507 62.0696 10.6027 62.0696 10.136C62.0696 8.41867 61.9856 7.07467 61.8176 6.104C61.6496 5.11467 61.3789 4.41467 61.0056 4.004C60.6322 3.59333 60.1282 3.388 59.4936 3.388C58.6349 3.388 57.9909 3.78 57.5616 4.564C57.1322 5.348 56.9176 6.62667 56.9176 8.4ZM74.0319 21.42C72.9119 21.42 71.8572 21.1027 70.8679 20.468C69.8972 19.8333 69.1132 18.8347 68.5159 17.472C67.9186 16.1093 67.6199 14.336 67.6199 12.152C67.6199 9.94933 67.9186 8.16667 68.5159 6.804C69.1132 5.42267 69.8972 4.41467 70.8679 3.78C71.8572 3.14533 72.9119 2.828 74.0319 2.828C75.1519 2.828 76.1972 3.14533 77.1679 3.78C78.1572 4.41467 78.9506 5.42267 79.5479 6.804C80.1639 8.16667 80.4719 9.94933 80.4719 12.152C80.4719 14.336 80.1639 16.1093 79.5479 17.472C78.9506 18.8347 78.1572 19.8333 77.1679 20.468C76.1972 21.1027 75.1519 21.42 74.0319 21.42ZM74.0319 20.86C74.4986 20.86 74.8906 20.7387 75.2079 20.496C75.5439 20.2533 75.8146 19.8147 76.0199 19.18C76.2252 18.5453 76.3746 17.668 76.4679 16.548C76.5612 15.4093 76.6079 13.944 76.6079 12.152C76.6079 10.36 76.5612 8.89467 76.4679 7.756C76.3746 6.59867 76.2252 5.70267 76.0199 5.068C75.8146 4.43333 75.5439 3.99467 75.2079 3.752C74.8906 3.50933 74.4986 3.388 74.0319 3.388C73.5652 3.388 73.1639 3.50933 72.8279 3.752C72.5106 3.99467 72.2492 4.43333 72.0439 5.068C71.8386 5.684 71.6892 6.57067 71.5959 7.728C71.5026 8.86667 71.4559 10.3413 71.4559 12.152C71.4559 13.944 71.5026 15.4093 71.5959 16.548C71.6892 17.6867 71.8386 18.5733 72.0439 19.208C72.2492 19.824 72.5106 20.2533 72.8279 20.496C73.1639 20.7387 73.5652 20.86 74.0319 20.86Z" fill="#081F32"/>
</svg>
