<svg width="75" height="25" viewBox="0 0 75 25" fill="none" xmlns="http://www.w3.org/2000/svg">
<path d="M6.308 21.42C4.516 21.42 3.07867 21.112 1.996 20.496C0.932 19.8613 0.4 18.984 0.4 17.864C0.4 17.3227 0.558667 16.8933 0.876 16.576C1.212 16.24 1.61333 16.072 2.08 16.072C2.54667 16.072 2.948 16.212 3.284 16.492C3.62 16.772 3.83467 17.276 3.928 18.004L4.012 18.452C4.14267 19.3107 4.39467 19.9267 4.768 20.3C5.16 20.6733 5.68267 20.86 6.336 20.86V13.944L5.496 13.636C3.90933 13.0947 2.67733 12.3853 1.8 11.508C0.941333 10.612 0.512 9.492 0.512 8.148C0.512 6.65467 1.02533 5.41333 2.052 4.424C3.09733 3.43467 4.53467 2.90267 6.364 2.828V0.307999H7.036V2.828C8.67867 2.86533 9.95733 3.23867 10.872 3.948C11.8053 4.63867 12.272 5.46 12.272 6.412C12.272 6.972 12.1227 7.40133 11.824 7.7C11.544 7.99867 11.152 8.148 10.648 8.148C10.2187 8.148 9.82667 7.99867 9.472 7.7C9.136 7.40133 8.89333 6.84133 8.744 6.02L8.632 5.376C8.52 4.79733 8.352 4.368 8.128 4.088C7.904 3.78933 7.54 3.612 7.036 3.556V10.136L7.54 10.304C9.5 10.9387 10.872 11.732 11.656 12.684C12.4587 13.636 12.86 14.7467 12.86 16.016C12.86 17.0053 12.6173 17.892 12.132 18.676C11.6653 19.4413 10.9933 20.0667 10.116 20.552C9.23867 21.0373 8.20267 21.3173 7.008 21.392V24.22H6.336V21.42H6.308ZM3.48 6.468C3.48 7.32667 3.71333 8.036 4.18 8.596C4.66533 9.156 5.39333 9.604 6.364 9.94V3.528C5.916 3.56533 5.468 3.696 5.02 3.92C4.572 4.144 4.19867 4.47067 3.9 4.9C3.62 5.31067 3.48 5.83333 3.48 6.468ZM9.78 17.444C9.78 16.604 9.57467 15.9507 9.164 15.484C8.75333 15.0173 8.03467 14.5787 7.008 14.168V20.832C7.86667 20.7013 8.53867 20.3373 9.024 19.74C9.528 19.1427 9.78 18.3773 9.78 17.444ZM14.6863 21V20.72L15.7783 20.384C16.4877 20.1413 16.8423 19.6653 16.8423 18.956V5.404L14.5743 5.712V5.348C15.6757 5.124 16.7303 4.80667 17.7383 4.396C18.765 3.98533 19.7263 3.50933 20.6223 2.968L20.9863 3.22L20.8743 7.224V18.956C20.8743 19.684 21.229 20.1507 21.9383 20.356L23.0863 20.72V21H14.6863ZM26.4634 21L26.1834 20.72L35.8714 6.16H24.4474V3.248H36.7674V5.068L30.1594 21H26.4634ZM41.5906 21.42C40.9186 21.42 40.3493 21.1867 39.8826 20.72C39.416 20.2533 39.1826 19.6933 39.1826 19.04C39.1826 18.3867 39.416 17.8173 39.8826 17.332C40.3493 16.8467 40.9186 16.604 41.5906 16.604C42.2626 16.604 42.832 16.8467 43.2986 17.332C43.7653 17.8173 43.9986 18.3867 43.9986 19.04C43.9986 19.6933 43.7653 20.2533 43.2986 20.72C42.832 21.1867 42.2626 21.42 41.5906 21.42ZM59.7852 10.332C59.7852 12.2173 59.3465 13.9347 58.4692 15.484C57.5918 17.0147 56.3038 18.3027 54.6052 19.348C52.9252 20.3933 50.8625 21.1307 48.4172 21.56L48.3052 21.056C49.9665 20.7013 51.3012 20.188 52.3092 19.516C53.3172 18.844 54.0732 17.9947 54.5772 16.968C55.0998 15.9413 55.4358 14.7093 55.5852 13.272C55.1932 13.5333 54.7078 13.748 54.1292 13.916C53.5505 14.0653 52.8972 14.14 52.1692 14.14C51.1238 14.14 50.1812 13.9347 49.3412 13.524C48.5198 13.0947 47.8665 12.4787 47.3812 11.676C46.8958 10.8733 46.6532 9.90267 46.6532 8.764C46.6532 7.55067 46.9518 6.50533 47.5492 5.628C48.1465 4.732 48.9305 4.04133 49.9012 3.556C50.8905 3.07067 51.9732 2.828 53.1492 2.828C55.2772 2.828 56.9105 3.5 58.0492 4.844C59.2065 6.16933 59.7852 7.99867 59.7852 10.332ZM50.6012 8.4C50.6012 10.0987 50.8345 11.3307 51.3012 12.096C51.7678 12.8427 52.5332 13.216 53.5972 13.216C54.3812 13.216 55.0625 13.048 55.6412 12.712C55.6785 12.3013 55.7065 11.8907 55.7252 11.48C55.7438 11.0507 55.7532 10.6027 55.7532 10.136C55.7532 8.41867 55.6692 7.07467 55.5012 6.104C55.3332 5.11467 55.0625 4.41467 54.6892 4.004C54.3158 3.59333 53.8118 3.388 53.1772 3.388C52.3185 3.388 51.6745 3.78 51.2452 4.564C50.8158 5.348 50.6012 6.62667 50.6012 8.4ZM67.7155 21.42C66.5955 21.42 65.5408 21.1027 64.5515 20.468C63.5808 19.8333 62.7968 18.8347 62.1995 17.472C61.6022 16.1093 61.3035 14.336 61.3035 12.152C61.3035 9.94933 61.6022 8.16667 62.1995 6.804C62.7968 5.42267 63.5808 4.41467 64.5515 3.78C65.5408 3.14533 66.5955 2.828 67.7155 2.828C68.8355 2.828 69.8808 3.14533 70.8515 3.78C71.8408 4.41467 72.6342 5.42267 73.2315 6.804C73.8475 8.16667 74.1555 9.94933 74.1555 12.152C74.1555 14.336 73.8475 16.1093 73.2315 17.472C72.6342 18.8347 71.8408 19.8333 70.8515 20.468C69.8808 21.1027 68.8355 21.42 67.7155 21.42ZM67.7155 20.86C68.1822 20.86 68.5742 20.7387 68.8915 20.496C69.2275 20.2533 69.4982 19.8147 69.7035 19.18C69.9088 18.5453 70.0582 17.668 70.1515 16.548C70.2448 15.4093 70.2915 13.944 70.2915 12.152C70.2915 10.36 70.2448 8.89467 70.1515 7.756C70.0582 6.59867 69.9088 5.70267 69.7035 5.068C69.4982 4.43333 69.2275 3.99467 68.8915 3.752C68.5742 3.50933 68.1822 3.388 67.7155 3.388C67.2488 3.388 66.8475 3.50933 66.5115 3.752C66.1942 3.99467 65.9328 4.43333 65.7275 5.068C65.5222 5.684 65.3728 6.57067 65.2795 7.728C65.1862 8.86667 65.1395 10.3413 65.1395 12.152C65.1395 13.944 65.1862 15.4093 65.2795 16.548C65.3728 17.6867 65.5222 18.5733 65.7275 19.208C65.9328 19.824 66.1942 20.2533 66.5115 20.496C66.8475 20.7387 67.2488 20.86 67.7155 20.86Z" fill="#081F32"/>
</svg>
