<svg width="76" height="25" viewBox="0 0 76 25" fill="none" xmlns="http://www.w3.org/2000/svg">
<path d="M6.308 21.42C4.516 21.42 3.07867 21.112 1.996 20.496C0.932 19.8613 0.4 18.984 0.4 17.864C0.4 17.3227 0.558667 16.8933 0.876 16.576C1.212 16.24 1.61333 16.072 2.08 16.072C2.54667 16.072 2.948 16.212 3.284 16.492C3.62 16.772 3.83467 17.276 3.928 18.004L4.012 18.452C4.14267 19.3107 4.39467 19.9267 4.768 20.3C5.16 20.6733 5.68267 20.86 6.336 20.86V13.944L5.496 13.636C3.90933 13.0947 2.67733 12.3853 1.8 11.508C0.941333 10.612 0.512 9.492 0.512 8.148C0.512 6.65467 1.02533 5.41333 2.052 4.424C3.09733 3.43467 4.53467 2.90267 6.364 2.828V0.307999H7.036V2.828C8.67867 2.86533 9.95733 3.23867 10.872 3.948C11.8053 4.63867 12.272 5.46 12.272 6.412C12.272 6.972 12.1227 7.40133 11.824 7.7C11.544 7.99867 11.152 8.148 10.648 8.148C10.2187 8.148 9.82667 7.99867 9.472 7.7C9.136 7.40133 8.89333 6.84133 8.744 6.02L8.632 5.376C8.52 4.79733 8.352 4.368 8.128 4.088C7.904 3.78933 7.54 3.612 7.036 3.556V10.136L7.54 10.304C9.5 10.9387 10.872 11.732 11.656 12.684C12.4587 13.636 12.86 14.7467 12.86 16.016C12.86 17.0053 12.6173 17.892 12.132 18.676C11.6653 19.4413 10.9933 20.0667 10.116 20.552C9.23867 21.0373 8.20267 21.3173 7.008 21.392V24.22H6.336V21.42H6.308ZM3.48 6.468C3.48 7.32667 3.71333 8.036 4.18 8.596C4.66533 9.156 5.39333 9.604 6.364 9.94V3.528C5.916 3.56533 5.468 3.696 5.02 3.92C4.572 4.144 4.19867 4.47067 3.9 4.9C3.62 5.31067 3.48 5.83333 3.48 6.468ZM9.78 17.444C9.78 16.604 9.57467 15.9507 9.164 15.484C8.75333 15.0173 8.03467 14.5787 7.008 14.168V20.832C7.86667 20.7013 8.53867 20.3373 9.024 19.74C9.528 19.1427 9.78 18.3773 9.78 17.444ZM14.6863 21V20.72L15.7783 20.384C16.4877 20.1413 16.8423 19.6653 16.8423 18.956V5.404L14.5743 5.712V5.348C15.6757 5.124 16.7303 4.80667 17.7383 4.396C18.765 3.98533 19.7263 3.50933 20.6223 2.968L20.9863 3.22L20.8743 7.224V18.956C20.8743 19.684 21.229 20.1507 21.9383 20.356L23.0863 20.72V21H14.6863ZM30.8034 21.42C29.5527 21.42 28.5261 21.28 27.7234 21C26.9394 20.72 26.1647 20.3933 25.3994 20.02L25.7074 16.38H25.9874L27.2194 18.648C28.0407 20.1227 29.1794 20.86 30.6354 20.86C31.4941 20.86 32.1847 20.5053 32.7074 19.796C33.2487 19.068 33.5194 17.8547 33.5194 16.156C33.5194 14.6813 33.2954 13.6267 32.8474 12.992C32.3994 12.3387 31.6341 12.012 30.5514 12.012H28.8714V11.452H30.3554C31.3447 11.452 32.0541 11.1533 32.4834 10.556C32.9314 9.95867 33.1554 8.92267 33.1554 7.448C33.1554 6.01067 32.9407 4.99333 32.5114 4.396C32.0821 3.78 31.5127 3.472 30.8034 3.472C30.0941 3.472 29.4967 3.67733 29.0114 4.088C28.5447 4.49867 28.1621 4.984 27.8634 5.544L26.6034 7.896L26.3234 7.868L26.6034 3.752C27.2007 3.49067 27.8634 3.276 28.5914 3.108C29.3381 2.92133 30.1687 2.828 31.0834 2.828C33.0434 2.828 34.5274 3.25733 35.5354 4.116C36.5621 4.956 37.0754 6.01067 37.0754 7.28C37.0754 8.19467 36.6834 9.072 35.8994 9.912C35.1154 10.7333 33.8834 11.3027 32.2034 11.62C34.1074 11.788 35.4887 12.3013 36.3474 13.16C37.2061 14.0187 37.6354 15.0547 37.6354 16.268C37.6354 17.2387 37.3554 18.116 36.7954 18.9C36.2541 19.684 35.4701 20.3 34.4434 20.748C33.4354 21.196 32.2221 21.42 30.8034 21.42ZM42.7938 21.42C42.1218 21.42 41.5524 21.1867 41.0858 20.72C40.6191 20.2533 40.3858 19.6933 40.3858 19.04C40.3858 18.3867 40.6191 17.8173 41.0858 17.332C41.5524 16.8467 42.1218 16.604 42.7938 16.604C43.4658 16.604 44.0351 16.8467 44.5018 17.332C44.9684 17.8173 45.2018 18.3867 45.2018 19.04C45.2018 19.6933 44.9684 20.2533 44.5018 20.72C44.0351 21.1867 43.4658 21.42 42.7938 21.42ZM60.9883 10.332C60.9883 12.2173 60.5496 13.9347 59.6723 15.484C58.7949 17.0147 57.5069 18.3027 55.8083 19.348C54.1283 20.3933 52.0656 21.1307 49.6203 21.56L49.5083 21.056C51.1696 20.7013 52.5043 20.188 53.5123 19.516C54.5203 18.844 55.2763 17.9947 55.7803 16.968C56.3029 15.9413 56.6389 14.7093 56.7883 13.272C56.3963 13.5333 55.9109 13.748 55.3323 13.916C54.7536 14.0653 54.1003 14.14 53.3723 14.14C52.3269 14.14 51.3843 13.9347 50.5443 13.524C49.7229 13.0947 49.0696 12.4787 48.5843 11.676C48.0989 10.8733 47.8563 9.90267 47.8563 8.764C47.8563 7.55067 48.1549 6.50533 48.7523 5.628C49.3496 4.732 50.1336 4.04133 51.1043 3.556C52.0936 3.07067 53.1763 2.828 54.3523 2.828C56.4803 2.828 58.1136 3.5 59.2523 4.844C60.4096 6.16933 60.9883 7.99867 60.9883 10.332ZM51.8043 8.4C51.8043 10.0987 52.0376 11.3307 52.5043 12.096C52.9709 12.8427 53.7363 13.216 54.8003 13.216C55.5843 13.216 56.2656 13.048 56.8443 12.712C56.8816 12.3013 56.9096 11.8907 56.9283 11.48C56.9469 11.0507 56.9563 10.6027 56.9563 10.136C56.9563 8.41867 56.8723 7.07467 56.7043 6.104C56.5363 5.11467 56.2656 4.41467 55.8923 4.004C55.5189 3.59333 55.0149 3.388 54.3803 3.388C53.5216 3.388 52.8776 3.78 52.4483 4.564C52.0189 5.348 51.8043 6.62667 51.8043 8.4ZM68.9186 21.42C67.7986 21.42 66.744 21.1027 65.7546 20.468C64.784 19.8333 64 18.8347 63.4026 17.472C62.8053 16.1093 62.5066 14.336 62.5066 12.152C62.5066 9.94933 62.8053 8.16667 63.4026 6.804C64 5.42267 64.784 4.41467 65.7546 3.78C66.744 3.14533 67.7986 2.828 68.9186 2.828C70.0386 2.828 71.084 3.14533 72.0546 3.78C73.044 4.41467 73.8373 5.42267 74.4346 6.804C75.0506 8.16667 75.3586 9.94933 75.3586 12.152C75.3586 14.336 75.0506 16.1093 74.4346 17.472C73.8373 18.8347 73.044 19.8333 72.0546 20.468C71.084 21.1027 70.0386 21.42 68.9186 21.42ZM68.9186 20.86C69.3853 20.86 69.7773 20.7387 70.0946 20.496C70.4306 20.2533 70.7013 19.8147 70.9066 19.18C71.112 18.5453 71.2613 17.668 71.3546 16.548C71.448 15.4093 71.4946 13.944 71.4946 12.152C71.4946 10.36 71.448 8.89467 71.3546 7.756C71.2613 6.59867 71.112 5.70267 70.9066 5.068C70.7013 4.43333 70.4306 3.99467 70.0946 3.752C69.7773 3.50933 69.3853 3.388 68.9186 3.388C68.452 3.388 68.0506 3.50933 67.7146 3.752C67.3973 3.99467 67.136 4.43333 66.9306 5.068C66.7253 5.684 66.576 6.57067 66.4826 7.728C66.3893 8.86667 66.3426 10.3413 66.3426 12.152C66.3426 13.944 66.3893 15.4093 66.4826 16.548C66.576 17.6867 66.7253 18.5733 66.9306 19.208C67.136 19.824 67.3973 20.2533 67.7146 20.496C68.0506 20.7387 68.452 20.86 68.9186 20.86Z" fill="#081F32"/>
</svg>
